<svg width="199" height="199" viewBox="0 0 199 199" fill="none" xmlns="http://www.w3.org/2000/svg">
<mask id="mask0_1_202910" style="mask-type:luminance" maskUnits="userSpaceOnUse" x="0" y="0" width="199" height="199">
<path d="M199 0H0V199H199V0Z" fill="white"/>
</mask>
<g mask="url(#mask0_1_202910)">
<path d="M190.161 61.2003C180.166 37.6118 161.39 18.835 137.801 8.84C125.668 3.70761 112.782 1.10571 99.4997 1.10571C86.2176 1.10571 73.331 3.70761 61.1998 8.83846C37.6117 18.834 18.8351 37.6107 8.83951 61.1988C3.70712 73.3315 1.10522 86.2181 1.10522 99.5002C1.10522 112.782 3.70712 125.669 8.83797 137.8C18.8329 161.389 37.6098 180.165 61.1983 190.16C73.3287 195.291 86.2153 197.893 99.4981 197.893C112.781 197.893 125.667 195.291 137.798 190.16C161.386 180.165 180.163 161.389 190.158 137.8C195.289 125.67 197.891 112.783 197.891 99.5002C197.891 86.2174 195.289 73.3315 190.158 61.2003" fill="#EB2127"/>
<path d="M190.161 61.2003C180.166 37.6118 161.39 18.835 137.801 8.84C125.668 3.70761 112.782 1.10571 99.4997 1.10571C86.2176 1.10571 73.331 3.70761 61.1998 8.83846C37.6117 18.834 18.8351 37.6107 8.83951 61.1988C3.70712 73.3315 1.10522 86.2181 1.10522 99.5002C1.10522 112.782 3.70712 125.669 8.83797 137.8C18.8329 161.389 37.6098 180.165 61.1983 190.16C73.3287 195.291 86.2153 197.893 99.4981 197.893C112.781 197.893 125.667 195.291 137.798 190.16C161.386 180.165 180.163 161.389 190.158 137.8C195.289 125.67 197.891 112.783 197.891 99.5002C197.891 86.2174 195.292 73.3315 190.161 61.2003Z" stroke="#EB2127" stroke-width="0.5" stroke-miterlimit="10"/>
<path d="M196.752 99.5001C196.752 153.212 153.211 196.753 99.4996 196.753C45.788 196.753 2.24678 153.212 2.24678 99.5001C2.24678 45.7885 45.788 2.24731 99.4996 2.24731C153.211 2.24731 196.752 45.7885 196.752 99.5001Z" fill="#EB2127"/>
<path d="M51.1487 56.7367C54.5705 56.5694 55.7974 66.0641 56.4738 66.0641C56.8438 66.0641 58.1382 61.681 59.2016 57.6058C60.4706 53.123 60.4745 50.9618 63.0357 51.4639C64.4245 51.8731 64.9551 53.1606 65.461 54.9034C65.6913 56.6799 64.4453 62.8672 62.8806 68.6622C61.3044 74.5016 59.4012 79.9434 56.9175 79.9327C54.5813 79.5204 53.9233 77.2387 52.7717 73.737C51.5625 77.7538 50.3088 81.3592 48.9376 83.8873C48.9376 83.8873 47.3583 86.3825 45.6263 86.5537C44.8915 86.4524 44.0601 85.8328 44.1675 84.5645C44.8992 79.9872 47.3706 65.4415 49.1786 58.8365C49.7414 57.374 50.6005 56.9064 51.1487 56.7344" fill="white"/>
<path d="M68.2519 56.5595C68.2519 56.5595 66.6027 65.8277 64.7839 70.8181C64.4884 74.4971 64.6803 77.6833 66.473 78.5992C67.9386 78.9301 70.866 78.6575 73.775 78.2153C77.1869 77.7009 80.578 76.8587 81.613 75.0015C82.4575 73.225 81.3304 71.5052 80.4007 71.5052C77.3558 71.3079 74.7332 72.8027 72.8161 72.5486C71.3781 72.6614 71.858 70.8595 71.6606 69.5037C74.4798 68.4288 81.3872 67.8684 80.7669 64.1187C79.4134 60.9894 77.1301 63.8646 71.6038 63.7801C71.6322 62.1448 71.4349 61.4116 72.2526 61.1022C77.4118 58.9871 83.2198 59.1284 82.2893 54.7015C82.006 53.5253 81.0394 52.6493 79.4702 52.5872C76.6433 53.0102 73.0487 53.9829 68.2488 56.5564" fill="white"/>
<path d="M99.4345 51.7723C96.947 51.9182 95.357 53.1197 94.9816 55.7477C93.0277 66.2912 90.7759 76.4193 94.5309 77.5417C97.1167 77.4742 98.1593 72.7402 99.2956 67.6455C100.378 73.7552 101.635 79.3774 104.737 79.8526C107.021 79.9939 108.346 76.6389 110.207 73.7107C110.207 73.7107 107.75 82.3663 112.406 82.7041C116.832 83.0426 115.707 76.6711 117.65 68.156C119.09 60.1914 121.834 52.5907 118.578 51.7723C116.04 51.2088 114.495 53.8898 112.488 57.1012C109.218 62.2045 107.16 66.3488 106.145 67.9841C104.985 62.576 104.752 57.9834 103.72 55.0997C102.896 52.7965 102.056 51.5466 99.4345 51.7723Z" fill="white"/>
<path d="M80.6009 114.164C80.6009 114.164 82.5671 115.576 84.7666 118.097C87.0154 120.675 89.4184 123.806 89.334 130.171C89.1927 135.142 87.6135 137.088 86.2676 138.65C84.5371 140.659 82.9663 141.484 82.9663 141.484C82.9663 141.484 84.534 144.951 88.2906 144.72C91.9489 144.466 96.051 142.278 97.0137 140.216C97.3516 136.367 94.8003 124.272 94.8142 121.099C95.0683 111.062 96.1961 100.146 94.5608 98.0927C93.165 96.4643 91.8391 96.4689 89.5704 96.2317C87.4737 96.0129 85.2711 95.8563 84.1571 96.4858C81.4277 100.09 80.9686 106.1 80.6047 114.163" fill="white"/>
<path d="M85.718 92.6398C81.1929 91.1389 80.1496 84.957 83.3426 80.7705C86.832 77.4292 91.7111 77.9935 94.6554 82.4058C93.0792 83.3201 92.0896 84.6046 92.0197 87.142C88.7314 87.4115 86.6063 89.2149 85.718 92.6398Z" fill="#EB2127"/>
<path d="M100.477 79.8258C102.446 83.3044 104.946 84.5044 108.146 82.701C108.519 84.2365 109.191 85.3251 110.233 85.8587L111.135 97.6436C111.135 97.6436 114.278 97.3158 117.775 96.7837C121.682 96.1895 125.514 94.5427 126.923 100.464C127.671 105.581 125.091 106.384 119.382 107.103C115.802 107.576 112.318 108.358 112.318 108.358C113.725 119.093 114.445 131.199 120.38 132.886C126.018 133.704 126.638 129.716 130.924 130.236C131.323 130.738 131.714 131.13 131.983 131.606L132.256 135.675C125.441 135.4 121.62 138.049 120.433 145.348C115.375 146.244 110.926 144.754 107.238 140.274C102.632 134.257 100.189 113.693 98.4521 94.9657C98.2056 92.4091 98.1834 88.9074 98.1035 85.9785C98.0053 82.4092 97.4686 79.6139 100.471 79.8258" fill="white"/>
<path d="M162.363 63.0222C164.52 62.7543 165.183 63.4452 168.428 64.5162C170.951 65.6018 175.152 66.2222 175.007 69.4429C174.786 71.3937 172.381 70.702 169.541 69.859C168.594 69.578 167.638 69.3093 166.624 69.168C166.069 70.9047 165.466 72.7096 165.524 73.5664C168.062 75.2555 171.91 74.3065 171.91 78.0071C171.655 80.3871 168 80.1698 164.116 79.5195C163.402 81.3713 162.868 83.2539 162.888 85.0596C167.229 86.6665 173.157 84.8815 173.05 87.6492C173.017 90.0292 168.449 90.4331 163.069 90.483C158.948 90.5828 155.699 89.8688 154.654 87.0995C155.224 83.1241 156.668 78.437 157.888 73.9895C160.003 67.8997 160.891 63.3109 162.364 63.0222" fill="white"/>
<path d="M146.66 132.887C146.535 136.271 145.758 139.591 144.517 142.867C144.517 142.867 152.75 141.655 157.599 145.772C160.658 145.772 171.061 141.401 173.049 137.454C172.669 134.085 168.778 131.998 166.283 131.816C163.787 131.633 157.317 134.635 153.37 134.58C150.592 134.636 146.66 132.89 146.66 132.89" fill="white"/>
<path d="M155.71 123.216C155.821 122.606 155.64 122.212 154.948 122.159C151.383 124.203 149.563 127.361 146.067 127.981C144.565 127.775 143.211 126.74 142.035 124.71C140.478 126.245 138.355 126.381 135.889 125.669C135.59 126.455 135.006 127.099 134.253 127.473C132.328 126.569 128.692 123.293 125.147 120.143C124.624 121.571 123.22 122.139 121.441 122.331C121.432 122.332 121.423 122.336 121.416 122.341C121.409 122.347 121.403 122.355 121.4 122.364C121.397 122.372 121.397 122.382 121.4 122.391C121.402 122.4 121.407 122.408 121.414 122.414C121.515 122.497 121.632 122.538 121.853 122.572C122.752 122.682 123.691 122.508 124.555 122.116C126.902 123.729 128.795 126.099 130.774 128.126C131.738 129.114 132.53 129.891 133.41 130.974C133.495 133.554 134.082 136.142 133.522 137.003C129.816 137.891 126.18 137.924 124.725 139.597C122.338 143.991 120.949 148.544 120.834 153.299C121.611 154.189 122.369 154.144 123.089 153.299C123.969 148.574 125.056 144.41 126.924 142.36C129.496 141.268 132.013 140.787 134.459 141.063C134.601 141.456 134.644 141.878 134.586 142.291C131.884 142.65 129.664 143.464 128.306 145.097C126.016 149.803 124.489 154.478 123.654 159.123C124.317 160.373 125.056 160.154 125.81 159.419C127.423 154.519 129.292 150.383 131.773 148.001C133.606 147.157 135.492 146.84 137.419 146.926C138.06 146.957 138.694 146.783 139.229 146.427C143.396 143.626 144.735 138.168 145.032 131.533C149.468 129.153 153.575 126.761 155.71 123.223" fill="white"/>
<path d="M117.761 119.832L123.595 119.353C123.789 120.198 123.058 120.788 121.425 121.13L117.76 121.327L117.761 119.832Z" fill="#EB2127"/>
<path d="M134.983 116.709C137.112 116.227 140.085 117.65 143.05 118.321C142.93 121.951 141.841 124.642 137.982 124.654C136.534 124.633 135.58 124.19 135.011 123.422C135.434 123.014 138.349 121.688 138.235 121.278C137.981 120.95 135.188 121.187 134.32 120.981C134.293 119.766 134.55 118.311 134.982 116.707" fill="white"/>
<path d="M38.6767 61.4962C29.5981 59.9738 23.2826 77.5667 23.2826 77.5667C23.2826 77.5667 16.9525 95.9489 24.6922 98.712C26.835 99.1066 33.3762 100.686 40.6498 83.8822C41.7792 81.0853 47.3599 64.71 38.6767 61.4962ZM35.4345 81.688C35.4345 81.688 32.2199 89.6672 28.699 88.9301C28.2161 88.6806 26.5248 87.7217 29.2595 79.7425C32.7696 69.7833 35.4345 71.3695 35.4345 71.3695C39.2402 73.1453 35.4345 81.688 35.4345 81.688Z" fill="white"/>
<path d="M85.1677 129.898C83.8142 111.121 57.34 110.275 57.34 110.275C66.5929 106.026 75.6661 96.404 74.4822 90.6804C73.6968 85.1795 69.1748 81.5442 61.7376 79.8682C58.1853 83.8014 55.2886 83.8805 52.6736 79.4844C50.9408 87.0022 46.9616 89.6294 41.8607 88.0271C37.9574 95.4182 33.7287 101.282 27.0593 101.734C27.0593 101.734 28.7967 112.035 29.3425 122.368C29.9145 133.174 29.3464 144.567 31.7395 145.994C33.516 147.139 35.4722 147.375 39.2672 147.629C42.8196 147.868 47.9834 148.184 56.1139 147.408C72.9874 145.378 85.8441 137.766 85.1677 129.903M38.3943 101.817C41.1981 99.5909 43.5059 96.6366 45.4138 93.105C48.6148 93.0113 51.2935 91.6353 53.4498 88.9768C59.9756 87.7008 63.6501 88.6613 64.5015 91.5541C63.994 97.8013 46.9362 105.539 39.4937 107.23L38.3943 101.817ZM42.8764 135.481L43.4537 122.877C57.34 124.037 72.0085 124.747 71.802 130.575C69.1633 137.349 54.0402 137.254 42.8749 135.481" fill="white"/>
<path d="M138.449 58.1311C138.275 55.9476 138.307 53.6474 135.664 52.8159C129.849 51.7595 125.107 57.5384 120.833 66.293C118.473 72.7843 116.591 80.312 119.818 82.7143C124.046 86.3611 129.108 80.8502 134.423 72.4956C137.736 66.293 138.76 62.0174 138.449 58.1311ZM129.97 69.5582C128.732 71.9904 126.233 76.7827 124.443 76.332C123.474 74.6215 124.682 71.5275 126.132 68.2776C127.648 64.7544 129.093 60.9387 131.506 61.0654C133.673 62.108 131.289 66.9609 129.97 69.5582Z" fill="white"/>
<path d="M154.214 68.9991C156.364 65.8206 157.205 62.3473 156.357 58.398C155.709 54.8741 154.156 53.0645 150.155 52.9846C146.853 52.978 143.966 54.6046 141.495 57.8644C141.495 57.8644 140.77 68.9968 132.424 79.4873C130.366 82.7118 127.546 88.9605 127.546 88.9605C127.798 90.1628 128.338 91.0019 129.235 91.385C132.674 92.2587 135.266 86.1275 137.975 80.5022C137.975 80.5022 140.104 79.5295 140.315 79.2738C140.78 79.5433 143.368 82.5613 145.813 85.7444C148.435 88.7893 149.758 92.2403 152.269 90.7071C156.683 88.8461 145.7 77.9625 145.7 76.2151C149.782 74.1422 152.417 71.657 154.214 68.9983M149.873 64.7266C148.03 67.6386 144.911 70.9154 143.444 70.1822C145.299 64.6836 147.188 59.4015 149.873 59.2717C151.562 60.0134 151.345 61.968 149.873 64.7266Z" fill="white"/>
<path d="M177.609 108.239C176.669 102.802 173.416 96.1494 167.748 93.0761C162.907 93.9414 158.445 93.7533 155.414 91.7932C149.26 95.4308 148.837 91.9207 146.258 91.9207C142.663 92.2585 135.262 100.083 132.83 105.778C130.441 110.558 129.179 115.942 130.138 122.003C131.39 123.81 133.383 125.586 134.074 125.811C134.466 125.677 134.688 125.459 134.811 125.08C132.496 123.708 132.809 120.7 133.577 117.041C133.577 117.041 130.462 116.35 130.462 115.265C130.451 114.067 133.917 113.883 133.917 113.883C135.213 112.022 136.304 111.257 139.543 111.068C140.671 111.068 142.478 111.745 143.171 112.071C143.44 112.198 144.112 112.071 144.313 112.251C144.611 112.519 144.551 112.922 144.747 113.266C145.533 114.334 145.631 115.744 145.265 117.929C145.225 118.58 145.09 119.131 145.125 119.78L153.145 120.988C154.161 120.632 154.745 120.325 155.287 120.388C156 120.472 156.373 121.107 157.036 121.777C163.817 122.925 170.147 123.783 174.911 123.638C175.841 122.905 177.126 121.326 177.575 119.536C178.412 115.151 178.275 112.083 177.61 108.238M146.153 109.597C148.347 104.212 151.823 100.845 157.571 101.055C164.278 102.566 165.876 107.602 165.945 113.692L146.153 109.597Z" fill="white"/>
</g>
</svg>
